<svg xmlns="http://www.w3.org/2000/svg" viewBox="0 0 200 76.7"><defs><style>.a,.b{fill:#fff;}.a{opacity:0.68;}</style></defs><title>Footer-Dental</title><path class="a" d="M.27,25.51C.35,24.43,2.21,81.4,14.84,76.39,24.75,72.47,37.75,54,37.75,54Z"/><path class="a" d="M71.15,25.51c-.09-1.08-1.94,55.89-14.58,50.88C46.66,72.47,33.66,54,33.66,54Z"/><path class="b" d="M45.82,0a10.74,10.74,0,0,0-6.31,2.56,6.36,6.36,0,0,1-7.68,0A10.74,10.74,0,0,0,25.51,0,25.51,25.51,0,0,0,0,25.51c0,7.6,7,14.1,15.46,19.33A165.31,165.31,0,0,0,35.94,55.56,158.91,158.91,0,0,0,55.87,44.84c8.48-5.23,15.46-11.73,15.46-19.33A25.5,25.5,0,0,0,45.82,0ZM36.56,41.13h-.4c-7.66,0-13.47-5.76-13.72-6l1.95-1.93c.22.21,5.54,5.36,12.12,5.19,3.75-.11,7.24-2,10.39-5.47L49,34.75C45.27,38.87,41.1,41,36.56,41.13Z"/><polygon class="b" points="24.39 33.19 24.39 33.2 23.42 34.17 24.38 33.19 24.39 33.19"/><path class="b" d="M93.67,11.64c8.12,0,12.9,4.84,12.9,13.42s-4.78,13.62-12.9,13.62H83.26v-27ZM88.92,34H93c5.06,0,7.79-3.07,7.79-8.91,0-5.66-2.81-8.77-7.79-8.77H88.92Z"/><path class="b" d="M128.5,32.38c-.6,4-4.33,6.65-9.35,6.65C112.87,39,109,35,109,28.45s3.86-10.76,9.91-10.76,9.73,4,9.73,10.25v1.69H114.43V30a4.63,4.63,0,0,0,4.81,5c2.06,0,3.69-1,4.22-2.57Zm-14-6.14h8.9A4.27,4.27,0,0,0,119,21.78,4.5,4.5,0,0,0,114.48,26.24Z"/><path class="b" d="M131.61,18.05h5.28v3.69H137a6.49,6.49,0,0,1,6.45-4c4.57,0,7.15,2.89,7.15,7.7V38.68h-5.47V26.59c0-2.73-1.27-4.29-3.86-4.29s-4.19,1.88-4.19,4.61V38.68h-5.47Z"/><path class="b" d="M161.15,13.46v4.59H165v4.14h-3.82v10c0,1.6.79,2.37,2.45,2.37a8.85,8.85,0,0,0,1.37-.1v4.05a14.84,14.84,0,0,1-2.64.22c-4.78,0-6.65-1.61-6.65-5.64V22.19h-2.79V18.05h2.79V13.46Z"/><path class="b" d="M167.16,32.74c0-3.75,2.87-5.86,8.13-6.18l5.15-.32V24.87c0-2-1.36-3.07-3.61-3.07-2,0-3.37,1.05-3.64,2.55h-5c.15-3.94,3.71-6.66,8.86-6.66,5.31,0,8.77,2.72,8.77,6.84V38.68h-5.28V35.49h-.11a7.07,7.07,0,0,1-6.32,3.43C170.14,38.92,167.16,36.43,167.16,32.74Zm13.28-1.63V29.59l-4.32.3c-2.29.15-3.51,1.05-3.51,2.57s1.3,2.47,3.28,2.47C178.42,34.93,180.44,33.36,180.44,31.11Z"/><path class="b" d="M189.64,10.35h5.47V38.68h-5.47Z"/><path class="b" d="M87.7,61c.26,2.23,2.58,3.69,5.58,3.69s5.08-1.44,5.08-3.43c0-1.76-1.29-2.73-4.55-3.46L90.28,57c-5-1.07-7.44-3.6-7.44-7.55,0-5,4.31-8.28,10.35-8.28,6.29,0,10.25,3.24,10.34,8.13h-5.3c-.19-2.29-2.2-3.67-5-3.67S88.54,47,88.54,49c0,1.67,1.31,2.6,4.42,3.32l3.28.69c5.42,1.16,7.78,3.49,7.78,7.61,0,5.24-4.26,8.56-11,8.56C86.55,69.13,82.41,66,82.24,61Z"/><path class="b" d="M125.78,62.37c-.6,4-4.32,6.65-9.35,6.65-6.27,0-10.11-4-10.11-10.59s3.86-10.75,9.91-10.75,9.72,4,9.72,10.25v1.68H111.71V60a4.64,4.64,0,0,0,4.82,5c2.06,0,3.69-1,4.21-2.56Zm-14-6.15h8.9a4.28,4.28,0,0,0-4.39-4.46A4.49,4.49,0,0,0,111.77,56.22Z"/><path class="b" d="M128.89,48h5.28v3.69h.12a6.48,6.48,0,0,1,6.44-4c4.57,0,7.16,2.89,7.16,7.7V68.66h-5.47V56.58c0-2.74-1.28-4.29-3.86-4.29s-4.2,1.87-4.2,4.6V68.66h-5.47Z"/><path class="b" d="M159.78,47.68c5.1,0,8.49,2.6,8.56,6.54h-5.06c-.11-1.63-1.48-2.67-3.57-2.67s-3.28.89-3.28,2.22c0,1,.9,1.72,2.75,2.15l3.88.84c4.14.94,5.79,2.53,5.79,5.61,0,4-3.69,6.65-9.09,6.65s-8.84-2.63-9.12-6.6H156c.26,1.74,1.67,2.72,3.93,2.72s3.51-.84,3.51-2.19c0-1.07-.72-1.63-2.59-2.08L157,60c-3.88-.88-5.89-2.88-5.89-5.9C151.14,50.22,154.55,47.68,159.78,47.68Z"/><path class="b" d="M190.39,62.37c-.6,4-4.33,6.65-9.35,6.65-6.27,0-10.11-4-10.11-10.59s3.86-10.75,9.91-10.75,9.72,4,9.72,10.25v1.68H176.32V60a4.64,4.64,0,0,0,4.82,5c2.06,0,3.69-1,4.21-2.56Zm-14-6.15h8.9a4.28,4.28,0,0,0-4.39-4.46A4.49,4.49,0,0,0,176.38,56.22Z"/><path class="b" d="M194,65.87a3,3,0,1,1,3,3A3,3,0,0,1,194,65.87Z"/></svg>