<svg xmlns="http://www.w3.org/2000/svg" viewBox="0 0 107.54 35.16"><defs><style>.a,.b{fill:#7ae5ee;}.a{opacity:0.85;}.c{fill:#2d2a2a;}</style></defs><title>Header-Logo</title><path class="a" d="M.12,11.69C.16,11.2,1,37.31,6.8,35c4.55-1.8,10.51-10.27,10.51-10.27Z"/><path class="a" d="M32.61,11.69c0-.49-.89,25.62-6.68,23.33-4.54-1.8-10.5-10.27-10.5-10.27Z"/><path class="b" d="M21,0a5,5,0,0,0-2.9,1.17,2.91,2.91,0,0,1-3.52,0A5,5,0,0,0,11.69,0,11.7,11.7,0,0,0,0,11.69c0,3.49,3.2,6.47,7.09,8.86a73.38,73.38,0,0,0,9.39,4.92,71.38,71.38,0,0,0,9.13-4.92c3.89-2.39,7.09-5.37,7.09-8.86A11.7,11.7,0,0,0,21,0ZM16.76,18.86h-.19a9.86,9.86,0,0,1-6.28-2.75l.89-.89a8.73,8.73,0,0,0,5.4,2.38h.15a6.65,6.65,0,0,0,4.77-2.51l.94.84A7.86,7.86,0,0,1,16.76,18.86Z"/><path class="c" d="M46.74,2.1c4.63,0,7.37,2.76,7.37,7.67s-2.74,7.78-7.37,7.78h-6V2.1ZM44,14.88h2.33c2.89,0,4.46-1.76,4.46-5.1s-1.61-5-4.46-5H44Z"/><path class="c" d="M66.65,14c-.34,2.29-2.47,3.81-5.35,3.81-3.58,0-5.78-2.31-5.78-6.06s2.21-6.14,5.67-6.14,5.56,2.27,5.56,5.86v1H58.61v.19a2.65,2.65,0,0,0,2.75,2.85A2.37,2.37,0,0,0,63.77,14Zm-8-3.51h5.09a2.45,2.45,0,0,0-2.51-2.55A2.56,2.56,0,0,0,58.64,10.44Z"/><path class="c" d="M68.43,5.76h3V7.87h.06A3.72,3.72,0,0,1,75.2,5.59c2.61,0,4.09,1.65,4.09,4.4v7.56H76.16V10.64c0-1.56-.73-2.45-2.2-2.45a2.36,2.36,0,0,0-2.4,2.64v6.72H68.43Z"/><path class="c" d="M85.32,3.13V5.76h2.19V8.13H85.32v5.73c0,.91.45,1.35,1.41,1.35a4.5,4.5,0,0,0,.78-.06v2.32A8.68,8.68,0,0,1,86,17.6c-2.74,0-3.81-.92-3.81-3.23V8.13H80.6V5.76h1.59V3.13Z"/><path class="c" d="M88.76,14.16c0-2.14,1.64-3.36,4.65-3.54l3-.18V9.66c0-1.14-.79-1.76-2.07-1.76a1.92,1.92,0,0,0-2.08,1.46H89.35c.08-2.25,2.12-3.8,5.07-3.8s5,1.55,5,3.91v8.08h-3V15.73h-.07a4,4,0,0,1-3.61,2C90.46,17.69,88.76,16.27,88.76,14.16Zm7.6-.93v-.87l-2.48.17c-1.31.09-2,.6-2,1.47s.74,1.41,1.87,1.41A2.37,2.37,0,0,0,96.36,13.23Z"/><path class="c" d="M101.61,1.36h3.13V17.55h-3.13Z"/><path class="c" d="M43.32,30.3c.15,1.27,1.48,2.11,3.19,2.11s2.9-.83,2.9-2-.73-1.57-2.6-2l-2-.43C42,27.41,40.54,26,40.54,23.71,40.54,20.86,43,19,46.46,19s5.86,1.86,5.91,4.65h-3c-.11-1.3-1.25-2.1-2.87-2.1s-2.67.76-2.67,1.91c0,.95.75,1.49,2.53,1.9l1.87.39c3.1.67,4.45,2,4.45,4.35,0,3-2.43,4.9-6.27,4.9S40.3,33.2,40.2,30.3Z"/><path class="c" d="M65.1,31.1c-.35,2.28-2.48,3.8-5.35,3.8-3.59,0-5.78-2.3-5.78-6s2.2-6.15,5.66-6.15,5.56,2.27,5.56,5.86v1H57.05v.2a2.66,2.66,0,0,0,2.76,2.85,2.38,2.38,0,0,0,2.41-1.47Zm-8-3.51h5.09A2.43,2.43,0,0,0,59.67,25,2.57,2.57,0,0,0,57.08,27.59Z"/><path class="c" d="M66.87,22.9h3V25H70a3.71,3.71,0,0,1,3.69-2.28c2.61,0,4.09,1.65,4.09,4.41V34.7H74.61V27.79c0-1.56-.73-2.45-2.21-2.45A2.36,2.36,0,0,0,70,28V34.7H66.87Z"/><path class="c" d="M84.54,22.7c2.91,0,4.85,1.49,4.9,3.74h-2.9c-.06-.93-.84-1.52-2-1.52s-1.88.5-1.88,1.26c0,.59.52,1,1.58,1.23l2.21.49c2.37.53,3.31,1.44,3.31,3.2,0,2.29-2.11,3.8-5.19,3.8s-5.06-1.5-5.22-3.77h3c.15,1,1,1.56,2.25,1.56s2-.49,2-1.26c0-.61-.41-.93-1.48-1.19L83,29.75c-2.21-.5-3.36-1.65-3.36-3.37C79.6,24.16,81.55,22.7,84.54,22.7Z"/><path class="c" d="M102,31.1c-.34,2.28-2.47,3.8-5.34,3.8-3.59,0-5.79-2.3-5.79-6s2.21-6.15,5.67-6.15,5.56,2.27,5.56,5.86v1H94v.2a2.65,2.65,0,0,0,2.75,2.85,2.37,2.37,0,0,0,2.41-1.47Zm-8-3.51h5.09A2.44,2.44,0,0,0,96.61,25,2.57,2.57,0,0,0,94,27.59Z"/><path class="c" d="M104.09,33.1a1.73,1.73,0,1,1,1.72,1.73A1.71,1.71,0,0,1,104.09,33.1Z"/></svg>